<?xml version="1.0" encoding="utf-8"?>
<!-- Generator: Adobe Illustrator 16.0.0, SVG Export Plug-In . SVG Version: 6.00 Build 0)  -->
<!DOCTYPE svg PUBLIC "-//W3C//DTD SVG 1.1//EN" "http://www.w3.org/Graphics/SVG/1.1/DTD/svg11.dtd">
<svg version="1.1" xmlns="http://www.w3.org/2000/svg" xmlns:xlink="http://www.w3.org/1999/xlink" x="0px" y="0px" width="1400px"
	 height="980px" viewBox="0 0 1400 980" enable-background="new 0 0 1400 980" xml:space="preserve">
<g id="BACKGROUND">
	<rect x="-11.874" y="-9.884" fill="#FFC9C7" width="1423.429" height="1000.45"/>
</g>
<g id="OBJECTS">
	<g>
		<path fill="#E89F5D" d="M913.221,190.295L913.221,190.295c23.803,12.793,32.819,42.382,20.201,66.278
			c-34.242,64.848-106.723,190.563-204.648,297.719c-17.085,18.694-46.166,19.801-64.606,2.442l0,0
			c-14.519-13.667-18.429-35.213-9.594-53.089c26.961-54.554,92.114-174.969,197.595-301.538
			C867.118,184.168,892.651,179.239,913.221,190.295z"/>
		<path fill="#F4A864" d="M863.004,217.788c-1.365,4.101-1.896,8.637-4.536,12.059c-4.18,5.418-12.58,6.62-15.937,12.583
			c-2.669,4.74-1.12,10.624-1.437,16.054c-0.723,12.395-11.08,21.804-20.944,29.344s-20.762,15.763-23.442,27.886
			c-0.615,2.782-0.766,5.695-1.875,8.32c-4.309,10.198-19.676,10.453-26.116,19.458c-7.241,10.127,0.579,25.02-4.376,36.44
			c-6.62,15.258-32.069,16.513-35.881,32.702c-1.868,7.934,2.629,16.679-0.473,24.217c-1.686,4.098-5.331,7.018-8.925,9.612
			c-8.909,6.431-19.033,12.798-22.627,23.182c-2.377,6.865-1.567,14.818-5.413,20.982c-2.455,3.934-6.481,6.571-9.733,9.876
			c-6.615,6.724-9.938,16.937-7.257,25.979c2.68,9.043,11.922,16.061,21.296,15.02c2.98-0.331,5.825-1.391,8.621-2.475
			c4.819-1.868,9.808-3.98,13.085-7.978c4.462-5.441,4.814-13.189,8.335-19.283c8.139-14.086,28.38-13.849,42.411-22.083
			c10.527-6.178,17.588-17.889,18.138-30.083c0.322-7.154-1.429-14.476,0.391-21.401c5.04-19.182,33.373-24.292,38.918-43.334
			c2.266-7.779,0.103-16.443,2.966-24.023c5.494-14.544,26.218-18.133,32.613-32.305c4.19-9.287,0.896-20.363,3.732-30.148
			c3.448-11.893,14.995-19.34,25.965-25.085c4.613-2.416,9.542-4.966,12.123-9.488c5.43-9.515-2.228-22.278,2.315-32.247
			c1.913-4.199,5.759-7.258,7.794-11.4c6.044-12.303-4.022-30.561-17.221-32.106C881.987,196.478,867.396,204.596,863.004,217.788z"
			/>
		<path fill="#D67D2D" d="M924.951,244.808c0,0-52.904-22.002-101.279,5.357C823.672,250.165,873.384,275.463,924.951,244.808z"/>
		<path fill="#D67D2D" d="M885.059,307.595c0,0-52.904-22.002-101.278,5.357C783.78,312.952,833.491,338.251,885.059,307.595z"/>
		<path fill="#D67D2D" d="M845.166,370.382c0,0-52.904-22.002-101.278,5.357C743.888,375.74,793.599,401.038,845.166,370.382z"/>
		<path fill="#D67D2D" d="M805.273,433.17c0,0-52.904-22.002-101.278,5.357C703.995,438.527,753.706,463.826,805.273,433.17z"/>
		<path fill="#D67D2D" d="M765.381,495.957c0,0-52.904-22.002-101.278,5.357C664.103,501.314,713.814,526.613,765.381,495.957z"/>
	</g>
	<g>
		<path fill="#FEB872" d="M791.525,125.254L791.525,125.254c30.381,9.79,47.164,42.242,37.599,72.693
			c-25.957,82.64-83.363,244.145-174.288,389.511c-15.863,25.361-49.414,32.847-74.538,16.61l0,0
			c-19.781-12.782-28.917-36.98-22.464-59.631c19.693-69.128,69.715-222.914,165.279-392.445
			C736.658,127.965,765.271,116.794,791.525,125.254z"/>
		<path fill="#F4A864" d="M741.795,159.937c-1.488,4.24-2.079,8.976-4.939,12.441c-3.966,4.808-11.217,5.834-15.252,10.585
			c-5.627,6.625-2.512,16.821-4.899,25.179c-4.233,14.814-24.074,19.973-30.099,34.154c-4.156,9.781-0.75,21.824-6.011,31.058
			c-4.108,7.209-12.493,10.858-17.733,17.292c-14.681,18.022-0.076,50.065-17.258,65.722c-5.609,5.111-13.6,7.152-18.83,12.65
			c-11.521,12.11-3.628,32.207-7.762,48.402c-5.566,21.806-32.897,35.734-31.489,58.196c0.441,7.043,3.866,13.776,3.437,20.821
			c-0.521,8.561-6.521,15.628-10.292,23.33c-6.139,12.535-6.128,28.357,1.638,39.955s23.666,17.647,36.652,12.532
			c11.129-4.383,18.542-15.53,29.703-19.834c4.775-1.842,10.27-2.463,14.008-5.959c8.078-7.556,2.018-21.104,4.324-31.922
			c3.338-15.656,23.399-22.501,28.718-37.6c4.016-11.401-1.458-24.733,3.381-35.81c5.812-13.306,23.913-17.686,29.957-30.887
			c4.997-10.914,0.032-24.19,4.043-35.503c5.844-16.486,28.312-22.969,32.918-39.843c3.294-12.066-4.013-24.92-1.639-37.201
			c3.554-18.375,27.194-29.011,27.553-47.723c0.165-8.65-4.988-16.932-3.902-25.515c1.664-13.154,16.969-21.136,19.276-34.192
			c0.579-3.275,0.275-6.649-0.34-9.918c-2.768-14.714-13.736-31.721-27.895-38.041C764.976,136.017,746.718,145.907,741.795,159.937
			z"/>
		<path fill="#D67D2D" d="M816.775,186.085c0,0-66.154-14.283-116.522,27.815C700.253,213.9,763.4,232.694,816.775,186.085z"/>
		<path fill="#D67D2D" d="M783.813,267.535c0,0-66.154-14.284-116.521,27.814C667.292,295.349,730.439,314.143,783.813,267.535z"/>
		<path fill="#D67D2D" d="M750.853,348.984c0,0-66.154-14.283-116.521,27.815C634.331,376.799,697.479,395.593,750.853,348.984z"/>
		<path fill="#D67D2D" d="M717.892,430.434c0,0-66.154-14.284-116.521,27.814C601.37,458.248,664.517,477.042,717.892,430.434z"/>
		<path fill="#D67D2D" d="M684.931,511.883c0,0-66.154-14.283-116.521,27.814C568.409,539.697,631.556,558.491,684.931,511.883z"/>
	</g>
	<g>
		<path fill="#FEB872" d="M314.38,229.016L314.38,229.016c-23.802,12.793-32.819,42.382-20.201,66.277
			c34.242,64.849,106.723,190.564,204.649,297.719c17.084,18.695,46.166,19.802,64.606,2.442l0,0
			c14.519-13.667,18.428-35.213,9.594-53.088c-26.961-54.555-92.113-174.97-197.595-301.538
			C360.483,222.889,334.95,217.959,314.38,229.016z"/>
		<path fill="#F4A864" d="M330.026,237.781c3.264,2.802,5.473,6.957,9.398,8.717c5.102,2.287,11.082-0.312,16.605,0.55
			c7.669,1.197,12.666,8.591,15.981,15.61c3.315,7.019,6.334,14.853,12.942,18.925c4.741,2.921,10.714,3.444,15.268,6.65
			c10.671,7.513,8.084,24.735,16.386,34.805c5.019,6.088,13.508,8.847,17.645,15.565c4.579,7.437,2.433,17.468,6.542,25.173
			c5.526,10.36,20.061,12.769,26.542,22.559c6.04,9.124,3.317,21.926,8.957,31.302c6.603,10.978,22.779,14.178,27.53,26.075
			c3.382,8.469-0.375,18.571,3.185,26.967c5.31,12.526,24.383,15.859,27.363,29.133c1.309,5.828-1.045,12.165,0.964,17.79
			c2.322,6.502,9.535,9.749,13.782,15.192c7.257,9.303,4.558,22.641,1.508,34.038c-0.792,2.961-1.693,6.102-3.997,8.122
			c-2.544,2.23-6.19,2.569-9.572,2.683c-11.161,0.373-22.365-0.573-33.304-2.814c-5.08-1.04-10.491-2.604-13.652-6.714
			c-4.677-6.078-2.567-15.091-5.905-21.996c-5.426-11.226-22.179-12.092-29.202-22.395c-5.636-8.268-3.121-19.771-7.307-28.861
			c-5.161-11.208-19.231-16.256-24.276-27.518c-3.69-8.238-1.839-18.419-6.624-26.073c-7.027-11.24-25.433-12.435-30.049-24.861
			c-2.01-5.412-0.668-11.492-1.781-17.157c-3.28-16.69-25.271-23.07-31.85-38.755c-2.374-5.658-2.598-12.29-6.284-17.195
			c-4.871-6.483-14.321-7.999-19.504-14.235c-7.3-8.784-3.268-22.979-9.744-32.388c-4.95-7.191-15.67-11.205-15.92-19.931
			c-0.228-7.952,8.894-13.394,9.946-21.278c0.811-6.079-2.553-13.357,3.313-18.047C318.802,234.31,326.262,234.549,330.026,237.781z
			"/>
		<path fill="#D67D2D" d="M302.65,283.528c0,0,52.905-22.002,101.279,5.357C403.929,288.885,354.217,314.184,302.65,283.528z"/>
		<path fill="#D67D2D" d="M342.542,346.315c0,0,52.905-22.002,101.279,5.357C443.821,351.672,394.11,376.971,342.542,346.315z"/>
		<path fill="#D67D2D" d="M382.435,409.103c0,0,52.905-22.002,101.279,5.357C483.714,414.459,434.002,439.758,382.435,409.103z"/>
		<path fill="#D67D2D" d="M422.328,471.89c0,0,52.905-22.002,101.279,5.357C523.606,477.247,473.895,502.546,422.328,471.89z"/>
		<path fill="#D67D2D" d="M462.22,534.677c0,0,52.905-22.002,101.279,5.357C563.499,540.034,513.788,565.333,462.22,534.677z"/>
	</g>
	<path fill="#D12F78" d="M251.351,724.936c-10.316,1.957-20.429,4.956-30.217,9.479c-12.771,5.899-25.984,19.406-19.937,32.107
		c2.155,4.526,6.386,7.688,10.691,10.257c22.833,13.619,50.631,15.15,77.191,16.327c20.55,0.911,41.1,1.821,61.65,2.732
		c19.146,0.849,39.982,2.36,54.177,15.236c5.519,5.006,9.604,11.414,15.021,16.53c34.061,32.176,86.805,5.144,122.901,31.467
		c19.472,14.2,31.268,28.197,56.456,35.05c25.09,6.825,51.509,7.531,77.351,7.911c59.068,0.87,118.183,1.745,177.225-0.76
		c55.523-2.356,113.993-3.558,168.078-17.223c12.542-3.169,26.816-9.114,29.688-21.729c2.074-9.114-3.13-18.723-10.693-24.216
		c-7.564-5.493-17.052-7.583-26.329-8.728c-35.702-4.403-72.94,3.15-107.297-7.512c-29.19-9.06-52.748-30.175-78.009-47.379
		c-104.35-71.065-228.298-54.842-348.169-53.687c-45.042,0.434-90.107,1.517-135.09,1.65
		C314.86,722.545,282.202,719.081,251.351,724.936z"/>
	<g>
		<path fill="#DBADAD" d="M349.185,481.9v219.324c0,24.6,19.942,44.541,44.542,44.541h418.191c24.6,0,44.541-19.941,44.541-44.541
			V481.9H349.185z"/>
		<polygon fill="#D69A9A" points="856.458,522.655 856.458,506.706 840.557,506.706 831.919,506.706 805.592,506.706 
			796.954,506.706 770.628,506.706 761.99,506.706 735.663,506.706 727.025,506.706 700.699,506.706 692.062,506.706 
			665.735,506.706 657.098,506.706 630.771,506.706 622.133,506.706 595.806,506.706 587.169,506.706 560.842,506.706 
			552.205,506.706 525.878,506.706 517.24,506.706 490.914,506.706 482.276,506.706 455.949,506.706 447.312,506.706 
			420.985,506.706 412.347,506.706 386.021,506.706 377.383,506.706 349.185,506.706 349.185,516.622 364.22,538.656 
			381.702,513.036 399.184,538.656 416.667,513.036 434.148,538.656 451.63,513.036 469.112,538.656 486.595,513.036 
			504.077,538.656 521.559,513.036 539.041,538.656 556.523,513.036 574.005,538.656 591.488,513.036 608.97,538.656 
			626.452,513.036 643.934,538.656 661.416,513.036 678.898,538.656 696.38,513.036 713.862,538.656 731.345,513.036 
			748.827,538.656 766.309,513.036 783.791,538.656 801.273,513.036 818.755,538.656 835.621,513.939 848.27,538.656 		"/>
		<path fill="#D69A9A" d="M856.458,701.224V512.911l-505.22,195.562l-0.022,6.082c5.667,18.087,22.555,31.21,42.51,31.21h418.191
			C836.517,745.765,856.458,725.823,856.458,701.224z"/>
		<g>
			<g>
				
					<line fill="none" stroke="#B56B6B" stroke-width="3" stroke-miterlimit="10" x1="386.021" y1="497.311" x2="386.021" y2="745.491"/>
				
					<line fill="none" stroke="#B56B6B" stroke-width="3" stroke-miterlimit="10" x1="429.622" y1="497.311" x2="429.622" y2="745.491"/>
				
					<line fill="none" stroke="#B56B6B" stroke-width="3" stroke-miterlimit="10" x1="473.224" y1="497.311" x2="473.224" y2="745.491"/>
				
					<line fill="none" stroke="#B56B6B" stroke-width="3" stroke-miterlimit="10" x1="516.826" y1="497.311" x2="516.826" y2="745.491"/>
				
					<line fill="none" stroke="#B56B6B" stroke-width="3" stroke-miterlimit="10" x1="560.428" y1="497.311" x2="560.428" y2="745.491"/>
				
					<line fill="none" stroke="#B56B6B" stroke-width="3" stroke-miterlimit="10" x1="604.03" y1="497.311" x2="604.03" y2="745.491"/>
				
					<line fill="none" stroke="#B56B6B" stroke-width="3" stroke-miterlimit="10" x1="647.631" y1="497.311" x2="647.631" y2="745.491"/>
				
					<line fill="none" stroke="#B56B6B" stroke-width="3" stroke-miterlimit="10" x1="691.233" y1="497.311" x2="691.233" y2="745.491"/>
				
					<line fill="none" stroke="#B56B6B" stroke-width="3" stroke-miterlimit="10" x1="734.835" y1="497.311" x2="734.835" y2="745.491"/>
				
					<line fill="none" stroke="#B56B6B" stroke-width="3" stroke-miterlimit="10" x1="778.438" y1="497.311" x2="778.438" y2="745.491"/>
				<line fill="none" stroke="#B56B6B" stroke-miterlimit="10" x1="822.039" y1="497.311" x2="822.039" y2="745.491"/>
				<line fill="none" stroke="#B56B6B" stroke-miterlimit="10" x1="349.185" y1="536.826" x2="856.458" y2="536.826"/>
				<line fill="none" stroke="#B56B6B" stroke-miterlimit="10" x1="349.185" y1="574.741" x2="856.458" y2="574.741"/>
				<line fill="none" stroke="#B56B6B" stroke-miterlimit="10" x1="349.185" y1="612.656" x2="856.458" y2="612.656"/>
				<line fill="none" stroke="#B56B6B" stroke-miterlimit="10" x1="349.185" y1="650.571" x2="856.458" y2="650.571"/>
				<line fill="none" stroke="#B56B6B" stroke-miterlimit="10" x1="349.185" y1="688.486" x2="856.458" y2="688.486"/>
				<line fill="none" stroke="#B56B6B" stroke-miterlimit="10" x1="356.982" y1="726.401" x2="851.533" y2="726.401"/>
			</g>
		</g>
		<path fill="#FFFFFF" d="M844.158,407.438H362.699c-11.201,0-20.28,9.08-20.28,20.28v69.593h522.019v-69.593
			C864.438,416.517,855.358,407.438,844.158,407.438z"/>
		<rect x="541.633" y="407.438" fill="#D69A9A" width="145.84" height="63.562"/>
		<polygon fill="#FFFFFF" points="864.62,497.311 840.557,497.311 831.919,497.311 805.592,497.311 796.955,497.311 
			770.628,497.311 761.99,497.311 735.663,497.311 727.025,497.311 700.699,497.311 692.062,497.311 665.735,497.311 
			657.098,497.311 630.771,497.311 622.133,497.311 595.806,497.311 587.169,497.311 560.842,497.311 552.205,497.311 
			525.878,497.311 517.24,497.311 490.914,497.311 482.276,497.311 455.949,497.311 447.312,497.311 420.985,497.311 
			412.347,497.311 386.021,497.311 377.383,497.311 342.419,497.311 364.22,529.26 381.702,503.64 399.184,529.26 416.666,503.64 
			434.148,529.26 451.63,503.64 469.113,529.26 486.595,503.64 504.077,529.26 521.559,503.64 539.041,529.26 556.523,503.64 
			574.005,529.26 591.488,503.64 608.97,529.26 626.452,503.64 643.934,529.26 661.416,503.64 678.898,529.26 696.38,503.64 
			713.862,529.26 731.345,503.64 748.827,529.26 766.309,503.64 783.791,529.26 801.273,503.64 818.755,529.26 835.621,504.544 
			848.27,529.26 		"/>
		<line fill="none" stroke="#B56B6B" stroke-miterlimit="10" x1="541.633" y1="422.136" x2="687.474" y2="422.136"/>
		<line fill="none" stroke="#B56B6B" stroke-miterlimit="10" x1="541.633" y1="449.199" x2="687.474" y2="449.199"/>
		<rect x="589.746" y="401.274" fill="#E8B3B3" width="49.616" height="63.147"/>
		<line fill="none" stroke="#B56B6B" stroke-miterlimit="10" x1="603.428" y1="401.274" x2="603.428" y2="464.421"/>
		<line fill="none" stroke="#B56B6B" stroke-miterlimit="10" x1="624.89" y1="401.274" x2="624.89" y2="464.421"/>
		<rect x="582.04" y="352.222" fill="#F2BBBB" width="67.847" height="49.052"/>
		<line fill="none" stroke="#B56B6B" stroke-miterlimit="10" x1="582.04" y1="368.385" x2="649.887" y2="368.385"/>
		<line fill="none" stroke="#B56B6B" stroke-miterlimit="10" x1="582.04" y1="384.924" x2="649.887" y2="384.924"/>
		<path fill="#E8B3B3" d="M639.361,352.222h-49.616V151.228c0-6.075,4.925-11,11-11h27.616c6.075,0,11,4.925,11,11V352.222z"/>
		<line fill="none" stroke="#B56B6B" stroke-miterlimit="10" x1="603.428" y1="352.222" x2="603.428" y2="142.596"/>
		<line fill="none" stroke="#B56B6B" stroke-miterlimit="10" x1="624.89" y1="352.222" x2="624.89" y2="142.596"/>
	</g>
	<g>
		<path fill="#07876E" d="M1063.669,322.762c0,0,139.825,216.505-63.147,410.458c-202.974,193.952-442.031,11.276-442.031,11.276
			s112.355,167.131,382.266,111.635c241.312-49.615,234.48-309.414,227.781-354.075
			C1161.772,456.95,1145.985,375.761,1063.669,322.762z"/>
		<path fill="#005212" d="M1157.979,598.228c-1.038-2.228-0.99-4.787-0.922-7.243c0.115-4.146,0.23-8.293,0.347-12.438
			c0.036-1.32,0.053-2.724-0.63-3.855c-0.665-1.102-1.881-1.745-3.089-2.194c-5.307-1.976-11.873-0.734-16.891-3.421
			c-4.168-2.231-8.435-11.717-12.641-12.137c-12.378-1.237-9.039,21.956-7.49,28.337c0.401,1.652,0.905,3.336,1.981,4.651
			c5.229,6.396,17.154-1.228,23.463,4.107c4.374,3.698,3.045,11.287,7.062,15.37c3.536,3.594,9.382,2.852,14.381,2.202
			c0.366-0.048,0.749-0.077,1.126-0.113c0.454-2.684,0.877-5.343,1.271-7.978C1162.465,602.913,1159.456,601.395,1157.979,598.228z"
			/>
		<path fill="#005212" d="M1152.061,453.672c-1.323-2.811-2.445-5.776-4.421-8.174c-3.977-4.826-10.555-6.447-16.663-7.791
			c-13.06-2.872-21.215,5.013-15.091,17.289c7.149,14.332,17.044,2.673,26.411,10.417c1.903,1.574,2.938,4.103,5.067,5.355
			c3.381,1.989,7.564-0.094,11.222-1.51c1.139-0.44,2.439-0.714,3.729-0.805c-0.779-3.371-1.639-6.821-2.576-10.33
			c-1.581,0.22-3.125,0.303-4.503-0.432C1153.7,456.875,1152.802,455.245,1152.061,453.672z"/>
		<path fill="#005212" d="M1097.813,756.825c1.447-7.053,2.894-14.104,4.342-21.157c0.196-0.958,0.391-1.97,0.081-2.896
			c-0.959-2.875-5.084-2.338-8.037-3.021c-4.205-0.971-6.816-5.426-7.232-9.722c-0.416-4.295,0.839-8.549,1.739-12.771
			c0.332-1.555,0.612-3.202,0.109-4.711c-0.53-1.593-1.843-2.774-2.82-4.14c-6.485-9.055,5.86-27.86-6.967-31.62
			c-10.672-3.127-22.529,14.949-27.14,21.768c-4.174,6.172-7.782,13.58-6.077,20.833c6.332,0.124,12.664,0.248,18.996,0.372
			c-0.064,5.949-0.128,11.898-0.192,17.849c-0.018,1.595-0.01,3.285,0.82,4.648c2.926,4.807,10.605,0.278,15.936,2.081
			c4.342,1.47,5.939,6.747,6.335,11.313c0.396,4.565,0.398,9.64,3.507,13.007c1.591,1.723,3.788,2.731,5.924,3.696
			c0.885,0.399,1.769,0.799,2.653,1.199c1.909-2.35,3.773-4.719,5.585-7.111C1102.938,755.867,1100.245,756.098,1097.813,756.825z"
			/>
		<path fill="#005212" d="M1033.387,805.902c1.027-6.43-2.377-13.801-8.609-15.685c-4.729-1.43-10.614,0.169-14.189-3.241
			c-6.133-5.849,1.907-19.054-5.206-23.658c-12.408-8.032-24.703,11.403-25.203,20.857c-0.339,6.407,1.049,13.999,6.824,16.797
			c3.105,1.506,6.738,1.206,10.157,1.682s7.198,2.306,7.818,5.702c0.2,1.095,0.037,2.222,0.108,3.333
			c0.445,6.915,8.821,9.9,15.626,11.211c2.383,0.459,4.765,0.918,7.147,1.377c2.248-1.27,4.442-2.576,6.622-3.894
			c-2.021-1.297-2.873-4.042-2.728-6.505C1031.914,811.166,1032.958,808.586,1033.387,805.902z"/>
		<path fill="#005212" d="M934.906,836.228c-2.03-0.742-4.418-0.313-6.298-1.38c-2.355-1.335-2.976-4.479-2.717-7.174
			c1.435-14.928-13.879-25.857-25.968-13.574c-4.304,4.373-7.362,13.951-4.847,19.678c3.106,7.072,18.649,6.522,19.526,8.709
			c1.539,3.842-1.345,8.026-1.305,12.166c0.022,2.247,0.95,4.328,2.369,6.078c3.828-0.616,7.695-1.285,11.59-1.993
			c-0.729-2.245,0.758-4.798,2.678-6.295c2.056-1.603,4.596-2.555,6.462-4.374C939.795,844.755,939.364,837.856,934.906,836.228z"/>
		<path fill="#005212" d="M807.887,830.756c-5.937-0.106-15.258,2.623-13.97,10.855c1.157,7.398,11.327,4.652,10.287,14.452
			c-0.357,3.364-1.636,6.643-1.453,10.021c0.003,0.053,0.015,0.104,0.019,0.155c2.365,0.173,4.756,0.32,7.158,0.456
			c0.015-2.683,2.562-5.585,5.128-7.173C827.474,851.838,824.489,831.053,807.887,830.756z"/>
		<path fill="#005212" d="M708.606,844.493c2.328-0.917,4.907-0.842,7.409-0.893c4.702-0.094,9.682-0.796,13.309-3.79
			c3.626-2.994,5.143-8.93,2.063-12.483c-1.39-1.604-3.434-2.473-5.444-3.153c-3.849-1.304-7.863-2.118-11.915-2.418l-2.471-1.297
			c-2.214-1.919-5.511-2.723-8.182-1.52s-4.272,4.638-3.031,7.291c1.335,2.854,5.394,4.546,5.021,7.675
			c-0.315,2.648-3.554,3.672-5.419,5.578c-1.243,1.271-1.628,3.021-1.394,4.734c2.314,0.851,4.661,1.683,7.037,2.5
			C706.359,845.736,707.446,844.95,708.606,844.493z"/>
		<path fill="#005212" d="M635.977,812.057c-0.419,0.328-0.877,0.589-1.336,0.848c3.525,2.219,7.181,4.423,10.966,6.605
			c1.129-1.295,1.88-2.863,1.923-4.577c0.027-1.082-0.215-2.206,0.154-3.224c1.341-3.695,7.131-1.128,10.8-2.537
			c3.813-1.464,4.01-7.289,1.302-10.347c-0.514-0.581-1.1-1.066-1.716-1.511c-2.651-1.002-5.259-2.02-7.827-3.047
			c-0.488-0.107-0.975-0.209-1.458-0.309l-4.697-0.785c-3.039-0.35-6.296-0.662-8.997,0.774c-2.701,1.437-4.263,5.368-2.226,7.649
			c1.296,1.451,3.551,1.768,4.787,3.27C639.396,806.988,638.139,810.364,635.977,812.057z"/>
		<path fill="#FF5293" d="M1048.275,717.492c-6.085,7.842-12.597,15.709-19.561,23.626
			c-197.335,224.398-470.227,3.375-470.227,3.375l203.094-169.544l302.088-252.19
			C1063.67,322.759,1214.796,503.282,1048.275,717.492z"/>
		<path fill="#EA4488" d="M1108.951,526.317c0,0-21.555,94.276-60.676,191.175c-6.085,7.842-12.597,15.709-19.561,23.626
			c-197.335,224.398-470.227,3.375-470.227,3.375l203.094-169.544C836.512,586.555,1026.202,569.066,1108.951,526.317z"/>
		<path fill="#FCCBC7" d="M1028.712,741.113c197.335-224.398,34.957-418.351,34.957-418.351s139.825,216.505-63.147,410.458
			c-202.974,193.952-442.031,11.276-442.031,11.276S831.377,965.511,1028.712,741.113z"/>
		<path fill="#701B3E" d="M1001.793,554.326c0,0,24.808-0.833,33.828,22.512C1035.621,576.838,1011.565,584.396,1001.793,554.326z"
			/>
		<path fill="#701B3E" d="M940.247,474.513c0,0,22.58-10.308,39.884,7.772C980.131,482.285,960.831,498.513,940.247,474.513z"/>
		<path fill="#701B3E" d="M1045.658,439.54c0,0,22.58-10.308,39.885,7.773C1085.543,447.313,1066.242,463.54,1045.658,439.54z"/>
		<path fill="#701B3E" d="M960.189,668.729c0,0,24.81,0.752,32.324,24.624C992.514,693.353,968.024,699.361,960.189,668.729z"/>
		<path fill="#701B3E" d="M855.9,666.428c0,0,17.539,17.564,6.633,40.09C862.533,706.518,840.592,694.094,855.9,666.428z"/>
		<path fill="#701B3E" d="M767.592,749.662c0,0,14.034,20.474-0.805,40.627C766.787,790.289,747.485,774.063,767.592,749.662z"/>
		<path fill="#701B3E" d="M727.264,642.845c0,0,7.102,23.784-13.188,38.435C714.075,681.279,700.659,659.929,727.264,642.845z"/>
		<path fill="#701B3E" d="M837.568,545.21c0,0,23.976,6.426,25.81,31.386C863.378,576.596,838.164,576.823,837.568,545.21z"/>
		<path fill="#FF64A3" d="M1030.875,370.483c-8.325,7.987-18.047,14.336-27.297,21.23c-11.05,8.235-21.484,17.295-31.188,27.081
			c-2.235,2.254-4.501,4.661-5.461,7.687c-0.773,2.436-0.626,5.054-0.472,7.604c0.614,10.132,1.228,20.264,1.842,30.396
			c1.938,0.99,4.279,1.159,6.339,0.458c5.845-11.237-2.962-25.515,1.395-37.409c2.35-6.413,8.085-10.868,13.548-14.967
			c4.7-3.526,9.4-7.053,14.1-10.579c1.972-1.479,4.072-3.011,6.521-3.285c5.408-0.606,10.9,5.032,15.705,2.475
			c-0.295,0.157,1.442-11.609,1.899-12.833c1.855-4.967,5.054-9.369,8.007-13.718c3.855-5.678,15.624-18.035,11.664-25.114
			C1042.359,356.911,1037.436,364.189,1030.875,370.483z"/>
		<path fill="#FFA1C7" d="M1105.375,459.602c0,0,7.548,306.054-310.848,354.568C794.527,814.17,1075.377,763.555,1105.375,459.602z"
			/>
	</g>
	<path fill="#D12F78" d="M366.07,816.089c-7.296-0.127-14.592-0.255-21.889-0.382c-3.797-0.065-8.881,0.995-9.034,4.789
		c-0.113,2.801,2.794,4.688,5.409,5.697c9.023,3.482,19.261,3.717,28.434,0.651c2.181-0.729,4.585-1.962,5.045-4.215
		c0.46-2.252-1.409-4.451-3.586-5.188s-4.554-0.388-6.825-0.03"/>
	<path fill="#D12F78" d="M244.66,848.984c-0.154,1.241,0.202,2.458,1.251,3.187c0.909,0.631,2.071,0.734,3.174,0.817
		c4.767,0.362,24.961,5.576,25.12-2.932c0.064-3.41-4.143-5.08-7.542-5.384c-4.953-0.442-15.105-1.897-19.524,0.524
		C245.782,845.941,244.846,847.479,244.66,848.984z"/>
	<path fill="#D12F78" d="M478.309,865.458c-2.492,0.584-5.533,2.008-5.335,4.56c0.146,1.872,2.034,3.054,3.743,3.829
		c6.802,3.085,14.28,4.669,21.749,4.604c1.438-0.012,2.903-0.081,4.285,0.316c1.541,0.443,2.854,1.431,4.234,2.246
		c6.52,3.848,14.527,3.847,22.097,3.737c2.66-0.039,6.12-0.753,6.424-3.395c0.296-2.568-2.785-4.098-5.33-4.556
		c-2.544-0.457-5.663-1.053-6.455-3.514C518.698,857.683,490.116,862.68,478.309,865.458z"/>
	<g>
		<path fill="#332910" d="M518.792,176.943c0,0-20.759,8.359-41.85,30.923c-8.172,8.744-49.799,0-46.173,34.125
			c3.366,31.675,29.633,34.453,49.271,32.092c49.596-5.96,62.69-85.979,52.888-95.529L518.792,176.943z"/>
		<path fill="#FFB18E" d="M551.827,405.292l-5.5,0.353l-3.082-15.726l-10.165-51.858c-0.29-1.497-0.153-2.977,0.336-4.314
			c0.923-2.519,3.083-4.515,5.892-5.111c4.883-1.042,9.524,2.563,9.728,7.552l2.132,52.813L551.827,405.292z"/>
		<path fill="#FFB18E" d="M508.411,327.937c0.696-0.21,1.432-0.332,2.194-0.344c4.989-0.078,8.852,4.349,8.092,9.285l-7.028,45.53
			l-3.525,22.818l-5.462-0.707l-0.001-22.166l-0.001-46.704C502.679,332.012,505.089,328.938,508.411,327.937z"/>
		<path fill="#FFB18E" d="M510.376,343.148L510.376,343.148c4.378,0.363,8.261-2.795,8.797-7.156l7.292-59.332l-24.918-2.576
			l1.325,61.045C502.941,339.333,506.186,342.801,510.376,343.148z"/>
		<path fill="#EA9878" d="M540.417,253.501l-9.164-36.055c-1.587-5.948,2.386-11.943,8.482-12.799l0,0
			c5.948-0.835,11.337,3.598,11.665,9.595l0.293,37.466c0.164,2.991-2,5.604-4.97,6.002l0,0
			C543.861,258.093,541.161,256.291,540.417,253.501z"/>
		<path fill="#DDDDDD" d="M540.76,241.691c0,0,6.704,1.928,10.866,1.573l-0.227-29.022c-0.328-5.997-5.717-10.43-11.665-9.595l0,0
			c-1.731,0.243-3.283,0.912-4.593,1.865C536.057,216.972,540.76,241.691,540.76,241.691z"/>
		
			<rect x="517.815" y="195.66" transform="matrix(0.9953 0.0972 -0.0972 0.9953 21.9593 -49.9127)" fill="#FFB18E" width="10.546" height="9.374"/>
		<path fill="#FFBCA1" d="M533.391,187.571c0.418,5.332-1.617,13.617-4.202,13c-2.248-0.537-11.35-2.499-13.485-10.969
			c-3.032-12.024,2.889-12.444,7.385-12.442C525.912,177.161,532.811,180.192,533.391,187.571z"/>
		<path fill="#EA9878" d="M481.782,246.678l20.901-23.826c3.868-4.788,2.675-11.881-2.546-15.142l0,0
			c-5.095-3.181-11.82-1.322-14.558,4.024l-13.37,28.721c-1.365,2.666-0.451,5.934,2.101,7.504l0,0
			C476.768,249.472,479.968,248.923,481.782,246.678z"/>
		<path fill="#FFFFFF" d="M503.52,211.187c-0.806-1.365-1.933-2.571-3.382-3.477c-5.095-3.181-11.82-1.322-14.558,4.024
			l-7.301,15.684c1.05,2.167,4.735,8.769,11.323,10.346l10.719-12.219C502.108,219.745,503.147,213.616,503.52,211.187z"/>
		<polygon fill="#332910" points="508.061,403.229 514.683,407.333 502.215,407.157 502.611,404.461 		"/>
		<path fill="#FFB18E" d="M542.205,342.775L542.205,342.775c4.346-0.644,7.407-4.604,6.936-8.971l-6.412-59.434l-25.271,0.186
			l15.614,62.12C534.096,340.754,538.045,343.391,542.205,342.775z"/>
		<polygon fill="#332910" points="551.62,404.075 558.458,407.81 545.999,408.319 546.246,405.605 		"/>
		<path fill="#FFFFFF" d="M528.001,195.361l3.271,0.579c0,0-0.694,1.165-1.274,1.078
			C529.418,196.932,528.012,196.014,528.001,195.361z"/>
		<path fill="#FFFFFF" d="M543.741,236.405c-0.489,0.163-0.966,0.289-1.456,0.389c-2.823,9.222-5.608,17.352-5.608,17.352
			l6.11,20.438c0,0-12.246,4.329-21.593,4.58c-8.018,0.213-19.485-3.814-19.485-3.814l4.417-27.013l-13.35-43.287l23.927-0.64
			l12.497-0.339l10.226-0.276c4.855-0.125,8.858,3.802,8.808,8.657c-0.025,1.593-0.464,4.141-1.179,7.214
			c0.382,2.582,1.06,4.511,1.637,6.167C550.485,230.992,548.897,234.611,543.741,236.405z"/>
		<path fill="#088A80" d="M504.197,260.137c0,0-11.421,16.77-5.118,36.008c3.53,10.775-6.789,61.897-6.789,61.897
			s38.574,11.71,60.74,0c0,0-2.858-80.144-14.104-96.373C538.926,261.669,521.078,265.564,504.197,260.137z"/>
		<path fill="#FFB18E" d="M516.308,204.42c0,0,3.263,7.791,7.454,7.136c4.191-0.654,3.148-7.419,3.148-7.419L516.308,204.42z"/>
		<path fill="#FFBCA1" d="M532.658,191.415c0,0,1.009,1.558,2.069,2.829c0,0-2.613,1.36-3.408,0.171L532.658,191.415z"/>
		<path fill="#332910" d="M530.759,182.492c0,0-6.371,2.195-9.093,10.978s-4.282,11.029-4.282,11.029s-7.641-12.807-4.609-21.275
			c3.032-8.469,14.25-7.842,14.25-7.842s9.435,0.298,6.204,10.967C533.229,186.35,533.164,183.015,530.759,182.492z"/>
		<g>
			<path fill="#00C9AF" d="M518.012,255.299l-0.821-3.86l-4.29,0.635l0.796,2.916c0.61,2.234-0.791,4.521-3.059,4.992
				c-2.137,0.444-4.237-0.899-4.731-3.024l-35.21-151.676l-4.312,1.002l35.429,152.619c1.038,4.467,5.503,7.245,9.969,6.202
				C516.183,264.077,518.952,259.718,518.012,255.299z"/>
			<path fill="#FFFFFF" d="M396.999,198.905c2.26-7.324,7.799-13.118,15.231-14.845c7.438-1.728,14.969,1.033,20.229,6.617
				c2.258-7.331,7.797-13.129,15.235-14.857c7.438-1.729,14.966,1.034,20.225,6.618c2.258-7.331,7.8-13.129,15.239-14.858
				c7.435-1.728,14.966,1.034,20.225,6.618c2.258-7.331,7.797-13.128,15.235-14.857c7.438-1.728,14.966,1.034,20.225,6.618
				c2.258-7.331,7.8-13.129,15.239-14.857c7.122-1.655,14.331,0.81,19.545,5.927c-1.658-7.739-32.196-57.963-101.258-51.579
				c-1.267,0.117-2.552,0.214-3.853,0.339C468.516,105.789,403.249,131.929,396.999,198.905z"/>
			<path opacity="0.54" fill="#00C9AF" d="M503.382,174.198c2.258-7.331,7.797-13.128,15.235-14.857
				c7.438-1.728,14.966,1.034,20.225,6.618c-23.144-56.248-55.46-60.738-66.474-60.509c-2.458,0.052-3.853,0.339-3.853,0.339
				C501.49,127.044,503.382,174.198,503.382,174.198z"/>
			<path opacity="0.54" fill="#00C9AF" d="M432.458,190.677c2.258-7.331,7.797-13.129,15.235-14.857
				c7.438-1.729,14.966,1.034,20.225,6.618c-16.961-44.91,0.598-76.649,0.598-76.649
				C418.921,127.038,432.458,190.677,432.458,190.677z"/>
			<circle fill="#00C9AF" cx="468.541" cy="105.782" r="2.213"/>
		</g>
		<path fill="#FFB18E" d="M489.285,203.054l-7.244,40.659c-0.562,3.153-3.624,5.214-6.757,4.547l0,0
			c-3.285-0.7-5.244-4.087-4.211-7.283l12.716-39.351L489.285,203.054z"/>
		<path fill="#FFB18E" d="M489.152,203.799c0,0,0.542-3.376,1.901-3.245c1.795,0.172,4.329-1.467,1.723-4.996
			c-1.983-2.686-8.822-1.611-8.822,6.566L489.152,203.799z"/>
		<path fill="#EA9878" d="M505.263,246.037l38.935,13.774c3.02,1.068,6.324-0.578,7.291-3.631l0,0
			c1.013-3.202-0.965-6.578-4.254-7.257l-40.499-8.369L505.263,246.037z"/>
		<path fill="#F4A484" d="M507.108,241.261c0,0-2.066-3.512-3.939-3.859c-1.873-0.348-0.412,2.559-0.412,2.559
			s-6.935-2.778-7.495,0.513s5.745,6.117,10.458,5.431L507.108,241.261z"/>
		<path fill="#FFB18E" d="M529.35,205.44c0,3.526-2.848,6.374-6.361,6.374c-3.525,0-6.374-2.848-6.374-6.374
			c0-0.351,0.025-0.69,0.088-1.029l12.497-0.339C529.3,204.512,529.35,204.963,529.35,205.44z"/>
	</g>
	<g>
		
			<rect x="1009.488" y="271.386" transform="matrix(-0.9825 -0.1864 0.1864 -0.9825 1961.3306 737.566)" fill="#FFB18E" width="11.697" height="10.397"/>
		<path fill="#FFBCA1" d="M1008.353,259.773c-2.47,5.393-4.398,14.233,0.421,15.147c4.818,0.914,16.282-1.918,17.408-7.854
			c1.126-5.935-1.867-11.488-6.687-12.402C1014.676,253.75,1010.868,254.281,1008.353,259.773z"/>
		<path fill="#701B3E" d="M1027.117,257.09c0,0-9.473-11.212-19.842-8.177c0,0-9.301,4.706,0.55,12.092c0,0,0.995-4.421,3.146-4.933
			c0,0,3.213,14.484,10.618,18.931C1021.59,275.003,1034.967,273.199,1027.117,257.09z"/>
		<path fill="#FFB18E" d="M1095.027,279.74l-44.318,19.504c-6.249,2.75-13.496-0.586-15.47-7.122l0,0
			c-1.926-6.377,2.017-13.037,8.534-14.416l47.373-10.021c3.25-0.688,6.482,1.24,7.423,4.427l0,0
			C1099.475,275.184,1097.959,278.45,1095.027,279.74z"/>
		<path fill="#FFB18E" d="M1102.557,227.702L1087,270.788c-1.207,3.341,0.595,7.018,3.975,8.112l0,0
			c3.545,1.147,7.303-1.023,8.08-4.667l9.574-44.859L1102.557,227.702z"/>
		<path fill="#F4A484" d="M1015.956,352.289l-37.847-3.679l-28.146-2.735c-0.323-0.03-0.648-0.047-0.97-0.039
			c-4.447,0.034-8.279,3.337-8.896,7.839c-0.637,4.624,2.334,8.967,6.869,10.061l0.913,0.221l46.483,11.158l21.683,5.205
			L1015.956,352.289z"/>
		<path fill="#F4A484" d="M942.326,347.026c-2.473,1.599-4.128,4.402-4.083,7.635l0.982,66.219l0.155,10.475l6.108,0.062
			l1.648-11.839l8.364-60.061l0.522-3.755c0.149-1.089,0.102-2.16-0.123-3.172c-0.773-3.486-3.609-6.307-7.348-6.889
			C946.276,345.344,944.093,345.877,942.326,347.026z"/>
		<polygon fill="#F4A484" points="939.895,428.892 931.828,431.992 945.45,434.385 945.577,431.365 		"/>
		<path fill="#FFB18E" d="M980.998,414.316c3.385,2.678,8.25,2.418,11.587-0.318l0.503-0.413l17.749-14.533l25.521-20.896
			c6.556-5.368,8.989-14.3,6.062-22.251l0,0l-17.492-3.591l-8.991,9.731l-36.01,38.968c-0.775,0.834-1.359,1.78-1.758,2.778
			C976.73,407.382,977.689,411.7,980.998,414.316z"/>
		<path fill="#FFB18E" d="M924.987,457.497l4.275,4.366l8.526-6.419l52.492-39.53c0.225-0.168,0.439-0.347,0.634-0.535
			c0.95-0.852,1.67-1.876,2.161-2.988c1.246-2.819,0.996-6.208-0.948-8.873c-2.981-4.094-8.664-4.832-12.571-1.905
			c-0.368,0.274-0.722,0.587-1.056,0.928l-46.666,47.924L924.987,457.497z"/>
		<polygon fill="#FFB18E" points="925.739,456.86 917.222,455.401 927.705,464.421 929.358,461.892 		"/>
		<path fill="#FFB18E" d="M1102.831,229.389c0,0-2.839-3.517-2.47-5.597c0.37-2.08,2.818,0.572,2.818,0.572s-0.177-8.284,3.459-7.58
			s4.107,8.353,1.555,12.977L1102.831,229.389z"/>
		<path fill="#FFB18E" d="M951.854,264.112l30.826,37.34c4.347,5.265,12.32,5.541,17.021,0.589l0,0
			c4.586-4.832,4.057-12.553-1.146-16.713l-37.815-30.241c-2.595-2.075-6.35-1.805-8.621,0.619l0,0
			C949.929,258.043,949.815,261.643,951.854,264.112z"/>
		<path fill="#FFB18E" d="M968.195,215.431l-17.434,42.361c-1.353,3.285,0.286,7.037,3.614,8.279l0,0
			c3.491,1.301,7.341-0.702,8.277-4.308l11.535-44.396L968.195,215.431z"/>
		<path fill="#FFB18E" d="M973.382,217.742c0,0,4.006-2.093,4.496-4.147c0.489-2.055-2.812-0.6-2.812-0.6s3.466-7.526-0.149-8.331
			s-7.098,6.022-6.601,11.281L973.382,217.742z"/>
		<path fill="#FFB18E" d="M1045.023,277.352l-51.643,3.44c-5.376,0.358-9.386,5.106-8.83,10.465
			c1.566,15.096,5.312,44.708,12.423,68.048c0,0,13.974,3.525,24.325,2.835c8.872-0.591,21.121-6.234,21.121-6.234
			C1048.534,313.91,1045.023,277.352,1045.023,277.352"/>
		<path fill="#FFBCA1" d="M1016.336,265.778c0,0,3.939-4.381,5.312-1.117c1.373,3.263-3.854,8.125-5.974,7.585L1016.336,265.778z"/>
		<path fill="#FFFFFF" d="M1012.119,268.847l-5.177-0.57c0,0,0.53,2.058,1.441,2.184S1011.815,269.824,1012.119,268.847z"/>
		<path fill="none" stroke="#B76444" stroke-miterlimit="10" d="M1038.268,316.8c0,0-14.585,4.537-29.723-2.119
			c0,0-6.008,5.839-16.436,5.7"/>
		<path fill="#FFBCA1" d="M1008.313,262.423c0,0-2.476,2.975-4.664,2.792c0,0,1.216,2.34,3.83,2.069L1008.313,262.423z"/>
		<path fill="#07876E" d="M945.117,345.834c0,0-6.617,26.122,15.838,27.653l35.212,3.806l-18.28,23.604
			c0,0,6.749,16.095,18.609,15.999l40.164-37.122c7.176-6.632,10.52-16.438,8.892-26.073l-1.632-9.66c0,0-35.837,9.797-51.283-1.367
			L945.117,345.834z"/>
	</g>
</g>
</svg>
